<svg version="1" xmlns="http://www.w3.org/2000/svg" width="926.667" height="926.667" viewBox="0 0 695.000000 695.000000"><path d="M333.7.6c-.1.1-4.7.4-10.2.8-67.7 4.2-136 30.4-190 73-25.3 19.9-51.7 47.8-70.2 74.1C36.1 187.3 16.4 233.3 7.5 279c-.8 4.1-1.7 8.6-2 9.9-1 5.3-2.7 19.5-4 33.6-.7 7.1-.7 44.5-.1 49.5.3 1.9.7 7 1.1 11.3.3 4.3.8 8.8 1.1 10 .2 1.2.6 3.9.9 6.2C9.9 439 26.1 485 47.8 522c5 8.7 18.8 29.8 20.2 31 .3.3 2.8 3.4 5.5 7 21.8 29.1 56.6 60.5 90.5 81.8 35.1 22 83.8 40.9 120.5 46.8 2.1.3 4.6.7 5.5.9 1 .2 4 .6 6.7 1 2.6.4 5.9.9 7.3 1.1 1.4.2 5.9.6 10 .9 4.1.4 9.1.8 11 1.1 4 .6 41 .6 45.5 0 1.7-.2 7.1-.7 12-1.2 5-.4 9.2-.8 9.5-.9.3 0 3.2-.5 6.5-1s6.2-.9 6.5-1c.3 0 2.8-.4 5.5-.9 7.8-1.2 35-8.1 45.5-11.6 42.1-14 82.7-36.7 116-65 9.4-8 31.9-30.4 39.1-39 3-3.6 5.6-6.7 5.9-7 2.1-2.1 14-18.5 19.9-27.4 20.5-31.1 35.2-63.4 45-99.1 4.3-15.4 8.5-36.2 9.6-47.3.4-3.5.8-7.2 1-8.2 2.2-11.3 2.2-60.7 0-74-.2-1.4-.6-4.8-1-7.5-.7-6.3-2.2-14.8-4.1-24.5-15.1-75.1-56.9-145.8-115.4-195-3.6-3-6.7-5.7-7-6-1.3-1.5-20.5-15.2-28-20.2-21.9-14.4-45.8-26.3-71-35.5-11.9-4.3-34.5-11-40.2-11.8-2.3-.4-4.6-.9-5-1.2-.5-.2-2.1-.7-3.6-.9-1.5-.3-6.3-1.1-10.7-1.9-4.4-.8-10.7-1.7-14-2.1-3.3-.3-6.7-.8-7.6-.9-5.7-1.1-50.1-2.7-51.2-1.9zM371 11.4c11.6.9 19 1.6 22 2.1 1.4.3 4.3.7 6.5 1 4.1.6 7.2 1.1 11.5 2.1 1.4.3 3.9.7 5.5 1 6.6 1.1 29.7 7.5 40.7 11.3 36.5 12.6 71.6 32 101.2 55.9 11.7 9.4 14.8 12.3 29.1 26.7 42.1 42.3 73.6 98.3 87 155.2 3.9 16.4 4.3 18.4 5 23.3.3 2.5.8 5.4 1 6.5.1 1.1.6 4.5 1 7.5s.9 6.6 1.1 8c2.2 14 2.1 55.2-.1 71.5-.3 1.6-.9 6.8-1.5 11.5-.9 7-2.8 17.1-6.5 34.4-.3 1.1-1.6 6-3.1 11-29.2 99.9-101.1 179.7-197.4 219.1-19.8 8.1-47 16-67 19.4-3.6.6-7.6 1.3-9 1.5-22.9 4-58.9 4.8-85 2-6.6-.7-19.3-2.4-22.1-2.9-1.3-.3-5.1-1-8.4-1.6-16.8-3-42.8-10.7-61.5-18.4-58.6-23.9-108.1-62.7-146.3-114.7C50.9 512.5 29.9 467.5 21 430c-3.4-14.2-4.6-20.2-5.9-28.5-1.5-9.5-1.9-12.6-2.6-19.5-.3-3.6-.8-8.3-1-10.5-.6-5.5-.6-43.1 0-48 .3-2.2.7-6.8 1-10.3.3-3.4.8-7.9 1.1-10 1.4-9.8 3.7-22.3 5-28.2.9-3.6 1.7-7.4 2-8.5 1.3-6.6 7.3-25.9 11.6-37.5 16.1-43.4 42.7-84.7 75.9-118 15.3-15.4 18-17.8 30.4-27.6 24.6-19.4 51.8-35.5 79.4-46.9 10.9-4.5 32.7-12.2 36.5-12.9 1.1-.2 5.5-1.4 9.6-2.5 17.1-4.7 37.1-8 60-9.7 4.7-.4 8.6-.7 8.7-.8.5-.4 31.1.2 38.3.8z"/><path d="M125.7 127c-7 .5-9.5 2-9.8 5.9-1.1 15.6.1 22.3 4.3 23.7 1.2.4 46.7.8 101 .9 98.6 0 98.7 0 101.5 2.1 1.5 1.2 3.6 3.5 4.6 5.2 1.7 2.9 1.8 7.4 1.8 72.4v73c-.1 3.4-.4 3.8-4.8 5.4-2.6 1-7.9 4.1-11.8 6.9l-7.2 5.2-15-14.6c-13.3-12.9-45.8-44.3-66.5-64.3-4-3.9-18.1-17.6-31.3-30.4C159 186 158.1 185.1 156 184c-1-.6-9.4-1-18.9-1-16.2 0-17.1.1-19 2.2-1.4 1.5-1.9 2.9-1.5 4.7.4 1.6 7.8 9.7 19.7 21.5 10.6 10.3 31.8 31.2 47.3 46.5 15.4 15.2 45.4 44.6 66.5 65.3l38.5 37.8.1 8.2c.1 4.6.8 11.2 1.7 14.8l1.6 6.5-25.2 24.9c-29.8 29.3-104.7 103-130 127.8-15.6 15.2-17.8 17.8-17.8 20.5 0 5.5 1.9 6.1 21.3 5.8 9.5-.1 17.5-.3 17.9-.3.4-.1 2.2-1.7 4.2-3.5 3.5-3.4 46.6-45 58.6-56.7 7.8-7.6 49.7-48.1 62-59.9 4.7-4.5 13.7-13.3 20-19.5l11.5-11.3 7.4 3.6 7.4 3.6-.1 106.4c-.1 117.2-.5 110.9 6 113 1.8.6 7.7 1 13.1.8 9.1-.2 9.9-.4 12.4-3l2.8-2.7.1-107.3c.1-58.9.2-107.5.3-107.8 0-.3 2-1.2 4.2-1.9 2.3-.8 6-2.6 8.3-4.1l4.2-2.6 12.5 11.9c6.8 6.6 22.7 22 35.2 34.1 12.6 12.2 26.3 25.5 30.5 29.5 4.3 4.1 14 13.5 21.8 21 46.1 44.8 57.8 55.8 60 56.4 1.3.3 9.7.6 18.5.6 14.4-.1 16.4-.3 18-1.9 2.3-2.3 2.4-4.7.5-7.5-1.4-2-21.1-21.6-51.6-51.4-7.4-7.3-32.6-32.1-56-55-23.4-23-48.2-47.4-55.2-54.3-7.1-6.9-12.8-12.9-12.8-13.4 0-.4.6-3.3 1.3-6.3.7-3 1.2-8 1.1-11l-.1-5.5 15.6-15.4c69.7-68.4 101.5-99.7 113.1-111 26.9-26.4 43.2-42.6 44.6-44.6 1.9-2.7 1.8-5.1-.6-7.5-1.8-1.8-3.4-1.9-18.4-1.9-9.1-.1-17.6.4-18.8.9-1.3.5-6.6 5.1-11.9 10.2-5.3 5.1-20.4 19.7-33.5 32.4-13.2 12.8-27.5 26.6-31.9 30.9-4.4 4.2-18.8 18.1-31.9 30.8-25.6 24.8-34.7 33.6-39.3 37.9l-2.9 2.7-2.9-2.5c-4.9-4.3-10.7-8-16.5-10.6l-5.5-2.6V167.3l2.5-3.6c1.4-2 3.9-4.2 5.5-4.9 2.3-1 25-1.3 102.5-1.3 75-.1 100-.4 101.6-1.3 3.1-1.7 4-5.4 3.9-15.2-.2-9.4-1.3-12.7-4.9-13.6-2.9-.7-439.2-1.1-448.9-.4zm229.9 218c4.5 1.5 11.9 8.1 13.8 12.4 4.9 10.9 3 22.3-5 30.1-5 4.9-8.7 6.6-15.3 7.2-11.3 1-20.5-4-25.4-13.8-5.3-10.6-3.5-21.2 4.9-29.6 7.5-7.5 16.7-9.7 27-6.3z"/></svg>